# xmcd
#
# Track frame offsets: 
#        150
#        20684
#        42209
#        65775
#        92684
#        120421
#        142311
#        161730
#        186762
#        209985
#
# Disc length: 3203 seconds
#
# Revision: 0
# Processed by: cddbd v1.5.2PL0 Copyright (c) Steve Scherf et al.
# Submitted via: ExactAudioCopyFreeDBPlugin 1.0
#
DISCID=9b0c810a
DTITLE=Minh Thuan - Giot le chia ly
DYEAR=1900
DGENRE=
TTITLE0=Cung nhau vui
TTITLE1=Gio dong mua thu
TTITLE2=Tieu phuong
TTITLE3=Giot le chia ly
TTITLE4=Nao ai biet
TTITLE5=Van ly truong thanh
TTITLE6=Trang sao va mat troi
TTITLE7=TOi da khoc
TTITLE8=Tinh ca shallala
TTITLE9=Loi chuc phuc
EXTD=
EXTT0=
EXTT1=
EXTT2=
EXTT3=
EXTT4=
EXTT5=
EXTT6=
EXTT7=
EXTT8=
EXTT9=
PLAYORDER=
